<svg width="622" height="150" viewBox="0 0 622 150" fill="none" xmlns="http://www.w3.org/2000/svg">
	<path d="M258.68 68.544V60H244.28V108H258.68V86.304C258.68 76.8 267.128 74.4 273.08 75.36V59.04C267.032 59.04 260.6 62.112 258.68 68.544Z" fill="#FD0422"/>
	<path d="M291.269 89.76H325.349C325.733 87.936 325.925 86.016 325.925 84C325.925 69.504 315.557 58.656 301.541 58.656C286.373 58.656 276.005 69.696 276.005 84C276.005 98.304 286.181 109.344 302.597 109.344C311.717 109.344 318.821 105.984 323.525 99.456L312.005 92.832C310.085 94.944 306.725 96.48 302.789 96.48C297.509 96.48 293.093 94.752 291.269 89.76ZM290.981 79.008C292.325 74.112 295.973 71.424 301.445 71.424C305.765 71.424 310.085 73.44 311.621 79.008H290.981Z" fill="#FD0422"/>
	<path d="M345.85 74.016C345.85 72.288 347.385 71.328 349.882 71.328C353.049 71.328 354.97 73.056 356.314 75.552L368.602 68.928C364.57 62.112 357.658 58.656 349.882 58.656C339.897 58.656 331.065 63.936 331.065 74.4C331.065 91.008 354.681 88.224 354.681 93.504C354.681 95.424 352.953 96.48 349.497 96.48C345.273 96.48 342.585 94.464 341.337 90.816L328.858 97.92C332.602 105.696 339.897 109.344 349.497 109.344C359.866 109.344 369.466 104.64 369.466 93.6C369.466 75.84 345.85 79.488 345.85 74.016Z" fill="#FD0422"/>
	<path d="M389.05 89.76H423.13C423.514 87.936 423.706 86.016 423.706 84C423.706 69.504 413.338 58.656 399.322 58.656C384.154 58.656 373.786 69.696 373.786 84C373.786 98.304 383.962 109.344 400.378 109.344C409.498 109.344 416.602 105.984 421.306 99.456L409.786 92.832C407.866 94.944 404.506 96.48 400.57 96.48C395.29 96.48 390.874 94.752 389.05 89.76ZM388.762 79.008C390.106 74.112 393.754 71.424 399.226 71.424C403.546 71.424 407.866 73.44 409.402 79.008H388.762Z" fill="#FD0422"/>
	<path d="M466.253 60V64.512C463.085 60.864 458.381 58.656 451.949 58.656C439.373 58.656 429.005 69.696 429.005 84C429.005 98.304 439.373 109.344 451.949 109.344C458.381 109.344 463.085 107.136 466.253 103.488V108H480.653V60H466.253ZM454.829 95.712C448.205 95.712 443.405 91.2 443.405 84C443.405 76.8 448.205 72.288 454.829 72.288C461.453 72.288 466.253 76.8 466.253 84C466.253 91.2 461.453 95.712 454.829 95.712Z" fill="#FD0422"/>
	<path d="M505.617 68.544V60H491.217V108H505.617V86.304C505.617 76.8 514.066 74.4 520.018 75.36V59.04C513.97 59.04 507.538 62.112 505.617 68.544Z" fill="#FD0422"/>
	<path d="M548.383 109.344C557.79 109.344 565.951 104.448 570.078 96.96L557.503 89.76C555.966 93.12 552.414 95.136 548.19 95.136C541.951 95.136 537.343 90.624 537.343 84C537.343 77.376 541.951 72.864 548.19 72.864C552.414 72.864 555.871 74.88 557.503 78.24L570.078 70.944C565.951 63.552 557.695 58.656 548.383 58.656C533.79 58.656 522.943 69.696 522.943 84C522.943 98.304 533.79 109.344 548.383 109.344Z" fill="#FD0422"/>
	<path d="M604.002 58.656C597.666 58.656 592.866 60.96 590.274 64.512V40.8H575.874V108H590.274V81.792C590.274 74.976 593.922 71.904 599.202 71.904C603.81 71.904 607.554 74.688 607.554 80.64V108H621.954V78.528C621.954 65.568 613.698 58.656 604.002 58.656Z" fill="#FD0422"/>
	<path d="M190.918 54.3691L145.089 8.54015C139.583 3.03441 132.263 0 124.473 0C116.684 0 109.364 3.03441 103.827 8.54015L99.6976 12.6694L95.5683 8.54015C90.0626 3.03441 82.7424 0 74.9218 0C67.1011 0 59.8123 3.03441 54.3066 8.54015L8.54015 54.3691C-2.84672 65.756 -2.84672 84.244 8.54015 95.6309L54.3691 141.46C60.0626 147.153 67.5391 150 74.9844 150C82.4296 150 89.9374 147.153 95.6309 141.46L99.7602 137.331L103.889 141.46C109.583 147.153 117.059 150 124.536 150C132.013 150 139.489 147.153 145.151 141.46L190.98 95.6309C202.367 84.244 202.367 65.756 190.98 54.3691H190.918ZM84.3378 130.198C79.1762 135.36 70.7612 135.36 65.5996 130.198L19.7706 84.3691C14.609 79.2075 14.609 70.7925 19.7706 65.6309L65.5996 19.8019C68.1022 17.2993 71.4181 15.9228 74.9844 15.9228C78.5506 15.9228 81.8665 17.2993 84.3691 19.8019L88.4984 23.9312L58.0605 54.3691C46.6736 65.756 46.6736 84.244 58.0605 95.6309L88.4984 126.069L84.3691 130.198H84.3378ZM99.6976 114.838L69.2596 84.4004C64.098 79.2388 64.098 70.8238 69.2596 65.6621L99.6976 35.2242L130.136 65.6621C135.297 70.8238 135.297 79.2388 130.136 84.4004L99.6976 114.838ZM179.625 84.4004L133.796 130.229C128.634 135.391 120.219 135.391 115.057 130.229L110.928 126.1L141.366 95.6621C152.753 84.2753 152.753 65.7873 141.366 54.4004L110.928 23.9625L115.057 19.8332C117.56 17.3306 120.907 15.9541 124.442 15.9541C127.977 15.9541 131.324 17.3306 133.827 19.8332L179.656 65.6621C184.818 70.8238 184.818 79.2388 179.656 84.4004H179.625Z" fill="url(#paint0_linear_89_2)"/>
	<defs>
		<linearGradient id="paint0_linear_89_2" x1="0" y1="150" x2="200" y2="150" gradientUnits="userSpaceOnUse">
			<stop stop-color="#AE1111"/>
			<stop offset="0.983661" stop-color="#FD0422"/>
		</linearGradient>
	</defs>
</svg>
